<?xml version="1.0" encoding="UTF-8"?>
<!--Generator: Apple Native CoreSVG 175-->
<!DOCTYPE svg
PUBLIC "-//W3C//DTD SVG 1.1//EN"
       "http://www.w3.org/Graphics/SVG/1.1/DTD/svg11.dtd">
<svg version="1.1" xmlns="http://www.w3.org/2000/svg" xmlns:xlink="http://www.w3.org/1999/xlink" width="3300" height="2200">
 <!--glyph: "uni1003AB.medium", point size: 100.0, font version: "17.1d1e1", template writer version: "65.1"-->
 <g id="Notes">
  <rect height="2200" id="artboard" style="fill:white;opacity:1" width="3300" x="0" y="0"/>
  <line style="fill:none;stroke:black;opacity:1;stroke-width:0.5;" x1="263" x2="3036" y1="292" y2="292"/>
  <text style="stroke:none;fill:black;font-family:sans-serif;font-size:13;font-weight:bold;" transform="matrix(1 0 0 1 263 322)">Weight/Scale Variations</text>
  <text style="stroke:none;fill:black;font-family:sans-serif;font-size:13;text-anchor:middle;" transform="matrix(1 0 0 1 559.711 322)">Ultralight</text>
  <text style="stroke:none;fill:black;font-family:sans-serif;font-size:13;text-anchor:middle;" transform="matrix(1 0 0 1 856.422 322)">Thin</text>
  <text style="stroke:none;fill:black;font-family:sans-serif;font-size:13;text-anchor:middle;" transform="matrix(1 0 0 1 1153.13 322)">Light</text>
  <text style="stroke:none;fill:black;font-family:sans-serif;font-size:13;text-anchor:middle;" transform="matrix(1 0 0 1 1449.84 322)">Regular</text>
  <text style="stroke:none;fill:black;font-family:sans-serif;font-size:13;text-anchor:middle;" transform="matrix(1 0 0 1 1746.56 322)">Medium</text>
  <text style="stroke:none;fill:black;font-family:sans-serif;font-size:13;text-anchor:middle;" transform="matrix(1 0 0 1 2043.27 322)">Semibold</text>
  <text style="stroke:none;fill:black;font-family:sans-serif;font-size:13;text-anchor:middle;" transform="matrix(1 0 0 1 2339.98 322)">Bold</text>
  <text style="stroke:none;fill:black;font-family:sans-serif;font-size:13;text-anchor:middle;" transform="matrix(1 0 0 1 2636.69 322)">Heavy</text>
  <text style="stroke:none;fill:black;font-family:sans-serif;font-size:13;text-anchor:middle;" transform="matrix(1 0 0 1 2933.4 322)">Black</text>
  <line style="fill:none;stroke:black;opacity:1;stroke-width:0.5;" x1="263" x2="3036" y1="1903" y2="1903"/>
  <g transform="matrix(1 0 0 1 263 1933)">
   <path d="M9.24805 0.830078Q10.8691 0.830078 12.2949 0.214844Q13.7207-0.400391 14.8096-1.49414Q15.8984-2.58789 16.5186-4.01367Q17.1387-5.43945 17.1387-7.05078Q17.1387-8.66211 16.5186-10.0879Q15.8984-11.5137 14.8047-12.6074Q13.7109-13.7012 12.2852-14.3164Q10.8594-14.9316 9.23828-14.9316Q7.62695-14.9316 6.20117-14.3164Q4.77539-13.7012 3.69141-12.6074Q2.60742-11.5137 1.9873-10.0879Q1.36719-8.66211 1.36719-7.05078Q1.36719-5.43945 1.9873-4.01367Q2.60742-2.58789 3.69629-1.49414Q4.78516-0.400391 6.21094 0.214844Q7.63672 0.830078 9.24805 0.830078ZM9.24805-0.654297Q7.91992-0.654297 6.7627-1.14746Q5.60547-1.64062 4.73145-2.51953Q3.85742-3.39844 3.36426-4.56055Q2.87109-5.72266 2.87109-7.05078Q2.87109-8.37891 3.35938-9.54102Q3.84766-10.7031 4.72168-11.582Q5.5957-12.4609 6.75293-12.9541Q7.91016-13.4473 9.23828-13.4473Q10.5762-13.4473 11.7334-12.9541Q12.8906-12.4609 13.7695-11.582Q14.6484-10.7031 15.1465-9.54102Q15.6445-8.37891 15.6445-7.05078Q15.6445-5.72266 15.1514-4.56055Q14.6582-3.39844 13.7842-2.51953Q12.9102-1.64062 11.748-1.14746Q10.5859-0.654297 9.24805-0.654297ZM5.6543-7.05078Q5.6543-6.72852 5.85938-6.52832Q6.06445-6.32812 6.40625-6.32812L8.51562-6.32812L8.51562-4.20898Q8.51562-3.88672 8.71094-3.67676Q8.90625-3.4668 9.23828-3.4668Q9.56055-3.4668 9.77051-3.67676Q9.98047-3.88672 9.98047-4.20898L9.98047-6.32812L12.0898-6.32812Q12.4219-6.32812 12.627-6.52832Q12.832-6.72852 12.832-7.05078Q12.832-7.38281 12.627-7.58789Q12.4219-7.79297 12.0898-7.79297L9.98047-7.79297L9.98047-9.90234Q9.98047-10.2344 9.77051-10.4443Q9.56055-10.6543 9.23828-10.6543Q8.90625-10.6543 8.71094-10.4443Q8.51562-10.2344 8.51562-9.90234L8.51562-7.79297L6.40625-7.79297Q6.06445-7.79297 5.85938-7.58789Q5.6543-7.38281 5.6543-7.05078Z"/>
  </g>
  <g transform="matrix(1 0 0 1 281.867 1933)">
   <path d="M11.709 2.91016Q13.75 2.91016 15.5518 2.12891Q17.3535 1.34766 18.7305-0.0292969Q20.1074-1.40625 20.8887-3.20801Q21.6699-5.00977 21.6699-7.05078Q21.6699-9.0918 20.8887-10.8936Q20.1074-12.6953 18.7305-14.0723Q17.3535-15.4492 15.5469-16.2305Q13.7402-17.0117 11.6992-17.0117Q9.6582-17.0117 7.85645-16.2305Q6.05469-15.4492 4.68262-14.0723Q3.31055-12.6953 2.5293-10.8936Q1.74805-9.0918 1.74805-7.05078Q1.74805-5.00977 2.5293-3.20801Q3.31055-1.40625 4.6875-0.0292969Q6.06445 1.34766 7.86621 2.12891Q9.66797 2.91016 11.709 2.91016ZM11.709 1.25Q9.98047 1.25 8.47656 0.605469Q6.97266-0.0390625 5.83496-1.17676Q4.69727-2.31445 4.05762-3.81836Q3.41797-5.32227 3.41797-7.05078Q3.41797-8.7793 4.05762-10.2832Q4.69727-11.7871 5.83008-12.9297Q6.96289-14.0723 8.4668-14.7119Q9.9707-15.3516 11.6992-15.3516Q13.4277-15.3516 14.9316-14.7119Q16.4355-14.0723 17.5781-12.9297Q18.7207-11.7871 19.3652-10.2832Q20.0098-8.7793 20.0098-7.05078Q20.0098-5.32227 19.3701-3.81836Q18.7305-2.31445 17.5928-1.17676Q16.4551-0.0390625 14.9463 0.605469Q13.4375 1.25 11.709 1.25ZM7.17773-7.05078Q7.17773-6.69922 7.41211-6.47461Q7.64648-6.25 8.01758-6.25L10.8887-6.25L10.8887-3.36914Q10.8887-2.99805 11.1133-2.76855Q11.3379-2.53906 11.6895-2.53906Q12.0605-2.53906 12.29-2.76855Q12.5195-2.99805 12.5195-3.36914L12.5195-6.25L15.4004-6.25Q15.7715-6.25 16.001-6.47461Q16.2305-6.69922 16.2305-7.05078Q16.2305-7.42188 16.001-7.65137Q15.7715-7.88086 15.4004-7.88086L12.5195-7.88086L12.5195-10.752Q12.5195-11.1328 12.29-11.3623Q12.0605-11.5918 11.6895-11.5918Q11.3379-11.5918 11.1133-11.3574Q10.8887-11.123 10.8887-10.752L10.8887-7.88086L8.01758-7.88086Q7.63672-7.88086 7.40723-7.65137Q7.17773-7.42188 7.17773-7.05078Z"/>
  </g>
  <g transform="matrix(1 0 0 1 305.646 1933)">
   <path d="M14.9707 5.66406Q17.0605 5.66406 18.96 5.01465Q20.8594 4.36523 22.4512 3.19336Q24.043 2.02148 25.2197 0.429688Q26.3965-1.16211 27.0459-3.06641Q27.6953-4.9707 27.6953-7.05078Q27.6953-9.14062 27.0459-11.04Q26.3965-12.9395 25.2197-14.5312Q24.043-16.123 22.4512-17.2998Q20.8594-18.4766 18.9551-19.126Q17.0508-19.7754 14.9609-19.7754Q12.8711-19.7754 10.9717-19.126Q9.07227-18.4766 7.48535-17.2998Q5.89844-16.123 4.72168-14.5312Q3.54492-12.9395 2.90039-11.04Q2.25586-9.14062 2.25586-7.05078Q2.25586-4.9707 2.90527-3.06641Q3.55469-1.16211 4.72656 0.429688Q5.89844 2.02148 7.49023 3.19336Q9.08203 4.36523 10.9814 5.01465Q12.8809 5.66406 14.9707 5.66406ZM14.9707 3.84766Q13.1641 3.84766 11.5283 3.2959Q9.89258 2.74414 8.53516 1.74805Q7.17773 0.751953 6.17676-0.610352Q5.17578-1.97266 4.62891-3.6084Q4.08203-5.24414 4.08203-7.05078Q4.08203-8.86719 4.62891-10.5029Q5.17578-12.1387 6.17188-13.501Q7.16797-14.8633 8.52539-15.8594Q9.88281-16.8555 11.5186-17.4023Q13.1543-17.9492 14.9609-17.9492Q16.7773-17.9492 18.4131-17.4023Q20.0488-16.8555 21.4111-15.8594Q22.7734-14.8633 23.7695-13.501Q24.7656-12.1387 25.3174-10.5029Q25.8691-8.86719 25.8691-7.05078Q25.8789-5.24414 25.332-3.6084Q24.7852-1.97266 23.7842-0.610352Q22.7832 0.751953 21.4209 1.74805Q20.0586 2.74414 18.4229 3.2959Q16.7871 3.84766 14.9707 3.84766ZM9.19922-7.05078Q9.19922-6.66992 9.45801-6.4209Q9.7168-6.17188 10.1172-6.17188L14.0625-6.17188L14.0625-2.2168Q14.0625-1.81641 14.3115-1.55762Q14.5605-1.29883 14.9512-1.29883Q15.3516-1.29883 15.6104-1.55273Q15.8691-1.80664 15.8691-2.2168L15.8691-6.17188L19.8242-6.17188Q20.2246-6.17188 20.4785-6.4209Q20.7324-6.66992 20.7324-7.05078Q20.7324-7.46094 20.4785-7.71484Q20.2246-7.96875 19.8242-7.96875L15.8691-7.96875L15.8691-11.9141Q15.8691-12.3242 15.6104-12.583Q15.3516-12.8418 14.9512-12.8418Q14.5605-12.8418 14.3115-12.583Q14.0625-12.3242 14.0625-11.9141L14.0625-7.96875L10.1172-7.96875Q9.70703-7.96875 9.45312-7.71484Q9.19922-7.46094 9.19922-7.05078Z"/>
  </g>
  <text style="stroke:none;fill:black;font-family:sans-serif;font-size:13;font-weight:bold;" transform="matrix(1 0 0 1 263 1953)">Design Variations</text>
  <text style="stroke:none;fill:black;font-family:sans-serif;font-size:13;" transform="matrix(1 0 0 1 263 1971)">Symbols are supported in up to nine weights and three scales.</text>
  <text style="stroke:none;fill:black;font-family:sans-serif;font-size:13;" transform="matrix(1 0 0 1 263 1989)">For optimal layout with text and other symbols, vertically align</text>
  <text style="stroke:none;fill:black;font-family:sans-serif;font-size:13;" transform="matrix(1 0 0 1 263 2007)">symbols with the adjacent text.</text>
  <line style="fill:none;stroke:#00AEEF;stroke-width:0.5;opacity:1.0;" x1="776" x2="776" y1="1919" y2="1933"/>
  <g transform="matrix(1 0 0 1 776 1933)">
   <path d="M3.31055 0.15625Q3.70117 0.15625 3.91602-0.00976562Q4.13086-0.175781 4.26758-0.585938L5.52734-4.0332L11.2891-4.0332L12.5488-0.585938Q12.6855-0.175781 12.9004-0.00976562Q13.1152 0.15625 13.4961 0.15625Q13.8867 0.15625 14.1162-0.0585938Q14.3457-0.273438 14.3457-0.644531Q14.3457-0.869141 14.2383-1.17188L9.6582-13.3691Q9.48242-13.8184 9.17969-14.043Q8.87695-14.2676 8.4082-14.2676Q7.5-14.2676 7.17773-13.3789L2.59766-1.16211Q2.49023-0.859375 2.49023-0.634766Q2.49023-0.263672 2.70996-0.0537109Q2.92969 0.15625 3.31055 0.15625ZM6.00586-5.51758L8.37891-12.0898L8.42773-12.0898L10.8008-5.51758Z"/>
  </g>
  <line style="fill:none;stroke:#00AEEF;stroke-width:0.5;opacity:1.0;" x1="793.197" x2="793.197" y1="1919" y2="1933"/>
  <text style="stroke:none;fill:black;font-family:sans-serif;font-size:13;font-weight:bold;" transform="matrix(1 0 0 1 776 1953)">Margins</text>
  <text style="stroke:none;fill:black;font-family:sans-serif;font-size:13;" transform="matrix(1 0 0 1 776 1971)">Leading and trailing margins on the left and right side of each symbol</text>
  <text style="stroke:none;fill:black;font-family:sans-serif;font-size:13;" transform="matrix(1 0 0 1 776 1989)">can be adjusted by modifying the x-location of the margin guidelines.</text>
  <text style="stroke:none;fill:black;font-family:sans-serif;font-size:13;" transform="matrix(1 0 0 1 776 2007)">Modifications are automatically applied proportionally to all</text>
  <text style="stroke:none;fill:black;font-family:sans-serif;font-size:13;" transform="matrix(1 0 0 1 776 2025)">scales and weights.</text>
  <g transform="matrix(1 0 0 1 1289 1933)">
   <path d="M2.8418 1.86523L4.54102 3.57422Q5.18555 4.22852 5.90332 4.17969Q6.62109 4.13086 7.31445 3.35938L18.0078-8.42773L17.041-9.4043L6.42578 2.27539Q6.16211 2.57812 5.89355 2.61719Q5.625 2.65625 5.27344 2.30469L4.10156 1.14258Q3.75 0.791016 3.79395 0.522461Q3.83789 0.253906 4.14062-0.0195312L15.6152-10.8203L14.6387-11.7871L3.04688-0.898438Q2.30469-0.214844 2.25098 0.498047Q2.19727 1.21094 2.8418 1.86523ZM9.25781-16.3281Q8.94531-16.0254 8.90625-15.6348Q8.86719-15.2441 9.04297-14.9512Q9.21875-14.6777 9.55566-14.541Q9.89258-14.4043 10.3809-14.5215Q11.4746-14.7754 12.5977-14.7314Q13.7207-14.6875 14.7949-13.9844L14.209-12.5293Q13.9551-11.9043 14.0674-11.4404Q14.1797-10.9766 14.5801-10.5664L16.875-8.25195Q17.2363-7.88086 17.5781-7.82227Q17.9199-7.76367 18.3398-7.8418L19.4043-8.03711L20.0684-7.36328L20.0293-6.80664Q20-6.43555 20.1221-6.12305Q20.2441-5.81055 20.6055-5.44922L21.3672-4.70703Q21.7285-4.3457 22.1533-4.33105Q22.5781-4.31641 22.9297-4.66797L25.8398-7.58789Q26.1914-7.93945 26.1816-8.35449Q26.1719-8.76953 25.8105-9.13086L25.0391-9.89258Q24.6875-10.2539 24.3799-10.3857Q24.0723-10.5176 23.7109-10.4883L23.1348-10.4395L22.4902-11.0742L22.7344-12.1973Q22.832-12.6172 22.6953-12.9834Q22.5586-13.3496 22.1191-13.7891L19.9219-15.9766Q18.6719-17.2168 17.2607-17.8369Q15.8496-18.457 14.4189-18.4814Q12.9883-18.5059 11.665-17.959Q10.3418-17.4121 9.25781-16.3281ZM10.752-15.957Q11.6602-16.6211 12.7002-16.9043Q13.7402-17.1875 14.8047-17.085Q15.8691-16.9824 16.8701-16.5137Q17.8711-16.0449 18.7012-15.2051L21.1328-12.793Q21.3086-12.6172 21.3525-12.4512Q21.3965-12.2852 21.3379-12.0312L21.0156-10.5469L22.5195-9.0625L23.5059-9.12109Q23.6914-9.13086 23.7891-9.09668Q23.8867-9.0625 24.0332-8.91602L24.6094-8.33984L22.168-5.89844L21.5918-6.47461Q21.4453-6.62109 21.4062-6.71875Q21.3672-6.81641 21.377-7.01172L21.4453-7.98828L19.9512-9.47266L18.4277-9.21875Q18.1836-9.16992 18.042-9.2041Q17.9004-9.23828 17.7148-9.41406L15.7129-11.416Q15.5176-11.5918 15.4932-11.7529Q15.4688-11.9141 15.5859-12.1875L16.4648-14.2773Q15.293-15.3711 13.8281-15.791Q12.3633-16.2109 10.8398-15.7617Q10.7227-15.7324 10.6885-15.8057Q10.6543-15.8789 10.752-15.957Z"/>
  </g>
  <text style="stroke:none;fill:black;font-family:sans-serif;font-size:13;font-weight:bold;" transform="matrix(1 0 0 1 1289 1953)">Exporting</text>
  <text style="stroke:none;fill:black;font-family:sans-serif;font-size:13;" transform="matrix(1 0 0 1 1289 1971)">Symbols should be outlined when exporting to ensure the</text>
  <text style="stroke:none;fill:black;font-family:sans-serif;font-size:13;" transform="matrix(1 0 0 1 1289 1989)">design is preserved when submitting to Xcode.</text>
  <text id="template-version" style="stroke:none;fill:black;font-family:sans-serif;font-size:13;text-anchor:end;" transform="matrix(1 0 0 1 3036 1933)">Template v.3.0</text>
  <text style="stroke:none;fill:black;font-family:sans-serif;font-size:13;text-anchor:end;" transform="matrix(1 0 0 1 3036 1951)">Requires Xcode 13 or greater</text>
  <text id="descriptive-name" style="stroke:none;fill:black;font-family:sans-serif;font-size:13;text-anchor:end;" transform="matrix(1 0 0 1 3036 1969)">Generated from mappin.and.ellipse</text>
  <text style="stroke:none;fill:black;font-family:sans-serif;font-size:13;text-anchor:end;" transform="matrix(1 0 0 1 3036 1987)">Typeset at 100 points</text>
  <text style="stroke:none;fill:black;font-family:sans-serif;font-size:13;" transform="matrix(1 0 0 1 263 726)">Small</text>
  <text style="stroke:none;fill:black;font-family:sans-serif;font-size:13;" transform="matrix(1 0 0 1 263 1156)">Medium</text>
  <text style="stroke:none;fill:black;font-family:sans-serif;font-size:13;" transform="matrix(1 0 0 1 263 1586)">Large</text>
 </g>
 <g id="Guides">
  <g id="H-reference" style="fill:#27AAE1;stroke:none;" transform="matrix(1 0 0 1 339 696)">
   <path d="M0.993347 0L3.6377 0L29.3282-67.1326L30.0301-67.1326L30.0301-70.459L28.1227-70.459ZM11.6882-24.4797L46.9818-24.4797L46.2311-26.7288L12.4382-26.7288ZM55.1193 0L57.7637 0L30.6381-70.459L29.4327-70.459L29.4327-67.1326Z"/>
  </g>
  <line id="Baseline-S" style="fill:none;stroke:#27AAE1;opacity:1;stroke-width:0.5;" x1="263" x2="3036" y1="696" y2="696"/>
  <line id="Capline-S" style="fill:none;stroke:#27AAE1;opacity:1;stroke-width:0.5;" x1="263" x2="3036" y1="625.541" y2="625.541"/>
  <g id="H-reference" style="fill:#27AAE1;stroke:none;" transform="matrix(1 0 0 1 339 1126)">
   <path d="M0.993347 0L3.6377 0L29.3282-67.1326L30.0301-67.1326L30.0301-70.459L28.1227-70.459ZM11.6882-24.4797L46.9818-24.4797L46.2311-26.7288L12.4382-26.7288ZM55.1193 0L57.7637 0L30.6381-70.459L29.4327-70.459L29.4327-67.1326Z"/>
  </g>
  <line id="Baseline-M" style="fill:none;stroke:#27AAE1;opacity:1;stroke-width:0.5;" x1="263" x2="3036" y1="1126" y2="1126"/>
  <line id="Capline-M" style="fill:none;stroke:#27AAE1;opacity:1;stroke-width:0.5;" x1="263" x2="3036" y1="1055.54" y2="1055.54"/>
  <g id="H-reference" style="fill:#27AAE1;stroke:none;" transform="matrix(1 0 0 1 339 1556)">
   <path d="M0.993347 0L3.6377 0L29.3282-67.1326L30.0301-67.1326L30.0301-70.459L28.1227-70.459ZM11.6882-24.4797L46.9818-24.4797L46.2311-26.7288L12.4382-26.7288ZM55.1193 0L57.7637 0L30.6381-70.459L29.4327-70.459L29.4327-67.1326Z"/>
  </g>
  <line id="Baseline-L" style="fill:none;stroke:#27AAE1;opacity:1;stroke-width:0.5;" x1="263" x2="3036" y1="1556" y2="1556"/>
  <line id="Capline-L" style="fill:none;stroke:#27AAE1;opacity:1;stroke-width:0.5;" x1="263" x2="3036" y1="1485.54" y2="1485.54"/>
  <line id="left-margin-Regular-M" style="fill:none;stroke:#00AEEF;stroke-width:0.5;opacity:1.0;" x1="1394.75" x2="1394.75" y1="1030.79" y2="1150.12"/>
  <line id="right-margin-Regular-M" style="fill:none;stroke:#00AEEF;stroke-width:0.5;opacity:1.0;" x1="1504.94" x2="1504.94" y1="1030.79" y2="1150.12"/>
 </g>
 <g id="Symbols">
  <g id="Black-L" transform="matrix(1 0 0 1 2845.35 1556)">
   <path d="M58.9226-82.3723Q58.9226-72.6119 64.5927-65.003Q70.2627-57.394 79.0382-54.4464L79.0382-15.9125Q79.0382-9.61807 80.6069-3.94816Q82.1755 1.72175 84.3383 5.28252Q86.5011 8.8433 88.2252 8.8433Q89.9481 8.8433 92.0817 5.28252Q94.2153 1.72175 95.7742-3.94816Q97.3331-9.61807 97.3331-15.9125L97.3331-54.4464Q106.166-57.3149 111.846-64.9634Q117.527-72.6119 117.527-82.3723Q117.527-90.4789 113.612-97.1618Q109.698-103.845 103.054-107.829Q96.411-111.812 88.2252-111.812Q80.0966-111.812 73.4539-107.829Q66.8113-103.845 62.867-97.1618Q58.9226-90.4789 58.9226-82.3723ZM80.0059-80.5728Q76.0415-80.5728 73.0136-83.6104Q69.9858-86.6479 69.9858-90.6721Q69.9858-94.7546 73.0136-97.7233Q76.0415-100.692 80.0059-100.692Q84.1675-100.692 87.0961-97.7233Q90.0247-94.7546 90.0247-90.6721Q90.0247-86.6479 87.0961-83.6104Q84.1675-80.5728 80.0059-80.5728ZM88.0487 39.0729Q111.295 39.0729 128.548 34.5618Q145.801 30.0507 155.321 22.099Q164.841 14.1473 164.841 3.9617Q164.841-2.8342 160.515-8.59255Q156.188-14.3509 148.563-18.8233Q140.937-23.2956 130.89-26.2226Q120.842-29.1495 109.337-30.2228L109.337-12.7351Q116.647-12.0109 123.14-10.5113Q129.634-9.01169 134.615-6.9072Q139.597-4.8027 142.426-2.16784Q145.254 0.467022 145.254 3.4837Q145.254 8.86011 137.917 12.8797Q130.579 16.8993 117.691 19.1172Q104.804 21.3352 88.0487 21.3352Q71.3324 21.3352 58.4268 19.1282Q45.5212 16.9213 38.1828 12.9017Q30.8444 8.88212 30.8444 3.4837Q30.8444 0.467022 33.6732-2.16784Q36.502-4.8027 41.4842-6.9072Q46.4664-9.01169 52.9597-10.5113Q59.453-12.0109 66.76-12.7351L66.76-30.2228Q55.3165-29.1495 45.2384-26.2226Q35.1603-23.2956 27.536-18.8233Q19.9118-14.3509 15.5853-8.59255Q11.2588-2.8342 11.2588 3.9617Q11.2588 14.1473 20.7791 22.099Q30.2994 30.0507 47.552 34.5618Q64.8045 39.0729 88.0487 39.0729Z"/>
  </g>
  <g id="Heavy-L" transform="matrix(1 0 0 1 2552.75 1556)">
   <path d="M56.2674-81.9213Q56.2674-72.5511 61.7704-65.2788Q67.2734-58.0065 75.7748-55.3102L75.7748-15.9596Q75.7748-9.1002 77.1764-3.35517Q78.578 2.38986 80.5272 5.83052Q82.4764 9.27119 84.0747 9.27119Q85.6669 9.27119 87.5938 5.83052Q89.5207 2.38986 90.9104-3.35517Q92.3001-9.1002 92.3001-15.9596L92.3001-55.3102Q100.84-57.9321 106.358-65.2416Q111.876-72.5511 111.876-81.9213Q111.876-89.6055 108.159-95.947Q104.442-102.288 98.1375-106.068Q91.8332-109.848 84.0747-109.848Q76.3547-109.848 70.0534-106.068Q63.7522-102.288 60.0098-95.947Q56.2674-89.6055 56.2674-81.9213ZM76.226-80.2668Q72.4568-80.2668 69.5868-83.1487Q66.7167-86.0307 66.7167-89.8505Q66.7167-93.7149 69.5868-96.5373Q72.4568-99.3597 76.226-99.3597Q80.1648-99.3597 82.947-96.5373Q85.7292-93.7149 85.7292-89.8505Q85.7292-86.0307 82.947-83.1487Q80.1648-80.2668 76.226-80.2668ZM83.9348 37.7167Q106.109 37.7167 122.427 33.38Q138.744 29.0433 147.684 21.5327Q156.623 14.022 156.623 4.61303Q156.623-2.00901 152.309-7.54856Q147.995-13.0881 140.584-17.3174Q133.173-21.5467 123.724-24.2201Q114.274-26.8934 103.94-27.7324L103.94-12.3353Q110.638-11.758 116.893-10.3225Q123.148-8.88706 128.106-6.76617Q133.065-4.64528 135.959-1.9389Q138.853 0.767489 138.853 3.92247Q138.853 9.32309 131.787 13.3847Q124.721 17.4464 112.339 19.7014Q99.9571 21.9564 83.9348 21.9564Q67.9333 21.9564 55.5468 19.7193Q43.1603 17.4822 36.0912 13.4205Q29.0221 9.35889 29.0221 3.92247Q29.0221 0.767489 31.9165-1.9389Q34.8108-4.64528 39.7723-6.76617Q44.7338-8.88706 50.9889-10.3225Q57.244-11.758 63.9297-12.3353L63.9297-27.7324Q53.6521-26.8934 44.174-24.2201Q34.696-21.5467 27.2913-17.3174Q19.8866-13.0881 15.5727-7.54856Q11.2588-2.00901 11.2588 4.61303Q11.2588 14.022 20.198 21.5327Q29.1373 29.0433 45.455 33.38Q61.7727 37.7167 83.9348 37.7167Z"/>
  </g>
  <g id="Bold-L" transform="matrix(1 0 0 1 2260.84 1556)">
   <path d="M53.3922-81.3191Q53.3922-72.4629 58.6781-65.6334Q63.964-58.8039 72.1012-56.4493L72.1012-15.264Q72.1012-8.0316 73.2857-2.38674Q74.4702 3.25812 76.1387 6.46656Q77.8073 9.675 79.2302 9.675Q80.6388 9.675 82.2927 6.46656Q83.9467 3.25812 85.1198-2.38674Q86.293-8.0316 86.293-15.264L86.293-56.4493Q94.445-58.7377 99.7495-65.6003Q105.054-72.4629 105.054-81.3191Q105.054-88.4501 101.598-94.3406Q98.1421-100.231 92.2848-103.742Q86.4274-107.252 79.2302-107.252Q72.0479-107.252 66.1976-103.742Q60.3474-100.231 56.8698-94.3406Q53.3922-88.4501 53.3922-81.3191ZM71.8537-79.8727Q68.3462-79.8727 65.6814-82.5489Q63.0166-85.2251 63.0166-88.776Q63.0166-92.3561 65.6814-94.9846Q68.3462-97.6131 71.8537-97.6131Q75.5-97.6131 78.0883-94.9846Q80.6765-92.3561 80.6765-88.776Q80.6765-85.2251 78.0883-82.5489Q75.5-79.8727 71.8537-79.8727ZM79.1283 35.9292Q99.9789 35.9292 115.21 31.8264Q130.442 27.7236 138.734 20.748Q147.026 13.7724 147.026 5.23513Q147.026-1.12046 142.747-6.362Q138.467-11.6035 131.318-15.5264Q124.169-19.4492 115.4-21.8231Q106.631-24.197 97.5795-24.7739L97.5795-11.9714Q103.665-11.5555 109.709-10.189Q115.754-8.82247 120.727-6.67749Q125.7-4.53251 128.691-1.74035Q131.682 1.0518 131.682 4.37013Q131.682 9.82085 124.888 13.9425Q118.094 18.0641 106.232 20.3663Q94.371 22.6686 79.1283 22.6686Q63.8921 22.6686 52.0417 20.3919Q40.1913 18.1153 33.3903 13.9937Q26.5894 9.87207 26.5894 4.37013Q26.5894 1.0518 29.5801-1.74035Q32.5708-4.53251 37.5509-6.67749Q42.5309-8.82247 48.5756-10.189Q54.6204-11.5555 60.6772-11.9714L60.6772-24.7739Q51.6837-24.197 42.8856-21.8231Q34.0875-19.4492 26.9528-15.5264Q19.8182-11.6035 15.5385-6.362Q11.2588-1.12046 11.2588 5.23513Q11.2588 13.7724 19.5509 20.748Q27.843 27.7236 43.0746 31.8264Q58.3062 35.9292 79.1283 35.9292Z"/>
  </g>
  <g id="Semibold-L" transform="matrix(1 0 0 1 1967.44 1556)">
   <path d="M51.41-80.9038Q51.41-72.4022 56.5463-65.8779Q61.6826-59.3537 69.5686-57.2345L69.5686-14.7845Q69.5686-7.29492 70.6034-1.71911Q71.6383 3.8567 73.1134 6.90505Q74.5884 9.95339 75.8904 9.95339Q77.1725 9.95339 78.6382 6.90505Q80.104 3.8567 81.1278-1.71911Q82.1517-7.29492 82.1517-14.7845L82.1517-57.2345Q90.0364-59.2931 95.1936-65.8476Q100.351-72.4022 100.351-80.9038Q100.351-87.6536 97.0751-93.2331Q93.7992-98.8126 88.2499-102.138Q82.7007-105.463 75.8904-105.463Q69.0788-105.463 63.5395-102.138Q58.0002-98.8126 54.7051-93.2331Q51.41-87.6536 51.41-80.9038ZM68.8394-79.601Q65.5123-79.601 62.989-82.1353Q60.4657-84.6697 60.4657-88.0352Q60.4657-91.4194 62.989-93.9142Q65.5123-96.409 68.8394-96.409Q72.2841-96.409 74.7387-93.9142Q77.1933-91.4194 77.1933-88.0352Q77.1933-84.6697 74.7387-82.1353Q72.2841-79.601 68.8394-79.601ZM75.8148 34.6968Q95.7528 34.6968 110.236 30.7553Q124.719 26.8138 132.565 20.2071Q140.411 13.6004 140.411 5.66401Q140.411-0.5079 136.154-5.544Q131.898-10.5801 124.93-14.2917Q117.962-18.0033 109.661-20.1707Q101.361-22.3382 93.1947-22.7343L93.1947-11.7206Q98.8577-11.416 104.757-10.097Q110.657-8.77794 115.64-6.61635Q120.623-4.45476 123.68-1.60348Q126.737 1.2478 126.737 4.67874Q126.737 10.164 120.131 14.327Q113.525 18.49 102.022 20.8247Q90.52 23.1595 75.8148 23.1595Q61.1061 23.1595 49.6252 20.8557Q38.1444 18.5518 31.5283 14.3888Q24.9122 10.2259 24.9122 4.67874Q24.9122 1.2478 27.9694-1.60348Q31.0266-4.45476 36.0194-6.61635Q41.0122-8.77794 46.9119-10.097Q52.8116-11.416 58.4349-11.7206L58.4349-22.7343Q50.3268-22.3382 41.9974-20.1707Q33.6679-18.0033 26.7195-14.2917Q19.771-10.5801 15.5149-5.544Q11.2588-0.5079 11.2588 5.66401Q11.2588 13.6004 19.1048 20.2071Q26.9508 26.8138 41.4336 30.7553Q55.9165 34.6968 75.8148 34.6968Z"/>
  </g>
  <g id="Medium-L" transform="matrix(1 0 0 1 1673.23 1556)">
   <path d="M49.907-80.589Q49.907-72.3561 54.9298-66.0633Q59.9527-59.7705 67.6482-57.8299L67.6482-14.4209Q67.6482-6.73633 68.5697-1.21289Q69.4911 4.31056 70.8194 7.23752Q72.1478 10.1645 73.358 10.1645Q74.5442 10.1645 75.8672 7.23752Q77.1903 4.31056 78.1009-1.21289Q79.0116-6.73633 79.0116-14.4209L79.0116-57.8299Q86.6935-59.7143 91.7392-66.0352Q96.7849-72.3561 96.7849-80.589Q96.7849-87.0496 93.6456-92.3934Q90.5062-97.7372 85.1905-100.922Q79.8749-104.107 73.358-104.107Q66.8276-104.107 61.524-100.922Q56.2204-97.7372 53.0637-92.3934Q49.907-87.0496 49.907-80.589ZM66.5539-79.3949Q63.3635-79.3949 60.9475-81.8217Q58.5315-84.2485 58.5315-87.4736Q58.5315-90.7091 60.9475-93.1025Q63.3635-95.4959 66.5539-95.4959Q69.8457-95.4959 72.1989-93.1025Q74.5521-90.7091 74.5521-87.4736Q74.5521-84.2485 72.1989-81.8217Q69.8457-79.3949 66.5539-79.3949ZM73.3023 33.7624Q92.5485 33.7624 106.464 29.9431Q120.379 26.1239 127.886 19.7969Q135.394 13.4699 135.394 5.9892Q135.394-0.0434301 131.156-4.92375Q126.918-9.80407 120.086-13.3555Q113.255-16.9069 105.31-18.9178Q97.3656-20.9287 89.8699-21.1878L89.8699-11.5304Q95.2128-11.3102 101.003-10.0272Q106.792-8.74417 111.783-6.56999Q116.773-4.39581 119.881-1.4997Q122.988 1.39642 122.988 4.91274Q122.988 10.4242 116.524 14.6185Q110.061 18.8129 98.8303 21.1723Q87.6 23.5318 73.3023 23.5318Q58.9936 23.5318 47.793 21.2073Q36.5924 18.8828 30.1165 14.6884Q23.6406 10.4941 23.6406 4.91274Q23.6406 1.39642 26.7481-1.4997Q29.8556-4.39581 34.8581-6.56999Q39.8606-8.74417 45.6504-10.0272Q51.4402-11.3102 56.7348-11.5304L56.7348-21.1878Q49.2979-20.9287 41.3238-18.9178Q33.3498-16.9069 26.5425-13.3555Q19.7353-9.80407 15.497-4.92375Q11.2588-0.0434301 11.2588 5.9892Q11.2588 13.4699 18.7665 19.7969Q26.2742 26.1239 40.1893 29.9431Q54.1045 33.7624 73.3023 33.7624Z"/>
  </g>
  <g id="Regular-L" transform="matrix(1 0 0 1 1379.8 1556)">
   <path d="M47.9466-80.1784Q47.9466-72.296 52.8214-66.3051Q57.6963-60.3142 65.1435-58.6066L65.1435-13.9467Q65.1435-6.00775 65.9169-0.552593Q66.6903 4.90256 67.8273 7.67119Q68.9643 10.4398 70.055 10.4398Q71.1159 10.4398 72.2529 7.67119Q73.3899 4.90256 74.1528-0.552593Q74.9158-6.00775 74.9158-13.9467L74.9158-58.6066Q82.3333-60.2635 87.2334-66.2797Q92.1336-72.296 92.1336-80.1784Q92.1336-86.2618 89.1723-91.2981Q86.211-96.3344 81.2-99.3359Q76.1891-102.337 70.055-102.337Q63.8911-102.337 58.895-99.3359Q53.8989-96.3344 50.9228-91.2981Q47.9466-86.2618 47.9466-80.1784ZM63.5728-79.1262Q60.5608-79.1262 58.2848-81.4127Q56.0087-83.6993 56.0087-86.741Q56.0087-89.7827 58.2848-92.0439Q60.5608-94.305 63.5728-94.305Q66.6652-94.305 68.8862-92.0439Q71.1071-89.7827 71.1071-86.741Q71.1071-83.6993 68.8862-81.4127Q66.6652-79.1262 63.5728-79.1262ZM70.0252 32.5436Q88.3689 32.5436 101.544 28.8838Q114.718 25.2241 121.785 19.2619Q128.851 13.2997 128.851 6.41337Q128.851 0.5624 124.636-4.11473Q120.421-8.79186 113.768-12.1343Q107.116-15.4768 99.6348-17.2835Q92.1541-19.0902 85.5333-19.1706L85.5333-11.2824Q90.4586-11.1722 96.105-9.93617Q101.751-8.70013 106.752-6.50953Q111.752-4.31892 114.925-1.36433Q118.098 1.59027 118.098 5.21796Q118.098 10.7636 111.82 14.9988Q105.542 19.2341 94.6666 21.6257Q83.7913 24.0174 70.0252 24.0174Q56.2382 24.0174 45.4031 21.6659Q34.568 19.3145 28.2749 15.0792Q21.9819 10.844 21.9819 5.21796Q21.9819 1.59027 25.1551-1.36433Q28.3283-4.31892 33.3435-6.50953Q38.3586-8.70013 44.005-9.93617Q49.6513-11.1722 54.5172-11.2824L54.5172-19.1706Q47.9558-19.0902 40.4454-17.2835Q32.9349-15.4768 26.3118-12.1343Q19.6886-8.79186 15.4737-4.11473Q11.2588 0.5624 11.2588 6.41337Q11.2588 13.2997 18.3253 19.2619Q25.3918 25.2241 38.5664 28.8838Q51.741 32.5436 70.0252 32.5436Z"/>
  </g>
  <g id="Light-L" transform="matrix(1 0 0 1 1084.53 1556)">
   <path d="M48.6238-79.4806Q48.6238-72.1523 53.2832-66.6334Q57.9425-61.1146 64.9793-59.8379L64.9793-8.61099Q64.9793-2.51901 65.5372 1.62274Q66.0952 5.76448 66.9346 7.83536Q67.774 9.90624 68.6184 9.90624Q69.4126 9.90624 70.252 7.83536Q71.0914 5.76448 71.6594 1.62274Q72.2274-2.51901 72.2274-8.61099L72.2274-59.8379Q79.2139-61.0844 83.8883-66.6184Q88.5628-72.1523 88.5628-79.4806Q88.5628-84.9894 85.8888-89.5332Q83.2148-94.077 78.6861-96.7912Q74.1574-99.5054 68.6184-99.5054Q63.0292-99.5054 58.5256-96.7912Q54.0221-94.077 51.323-89.5332Q48.6238-84.9894 48.6238-79.4806ZM62.5467-78.7568Q59.8425-78.7568 57.7717-80.8176Q55.7009-82.8784 55.7009-85.6328Q55.7009-88.3872 57.7717-90.4329Q59.8425-92.4786 62.5467-92.4786Q65.3313-92.4786 67.3367-90.4329Q69.3422-88.3872 69.3422-85.6328Q69.3422-82.8784 67.3367-80.8176Q65.3313-78.7568 62.5467-78.7568ZM68.5682 30.6145Q86.0294 30.6145 98.9167 27.2318Q111.804 23.8491 118.891 18.1845Q125.978 12.5199 125.978 5.65406Q125.978 0.316136 121.907-3.98134Q117.836-8.27881 111.337-11.375Q104.838-14.4712 97.439-16.165Q90.0404-17.8589 83.2348-17.9393L83.2348-11.8775Q88.6732-11.7468 94.7197-10.4903Q100.766-9.2337 106.054-7.00205Q111.341-4.77041 114.679-1.77477Q118.016 1.22087 118.016 4.91013Q118.016 10.6199 111.512 14.9475Q105.008 19.2751 93.8149 21.7078Q82.6215 24.1405 68.5682 24.1405Q54.5349 24.1405 43.3817 21.748Q32.2285 19.3555 25.6994 15.0279Q19.1704 10.7003 19.1704 4.91013Q19.1704 1.22087 22.5078-1.77477Q25.8452-4.77041 31.1579-7.00205Q36.4706-9.2337 42.5171-10.4903Q48.5637-11.7468 53.9015-11.8775L53.9015-17.9393Q47.1965-17.8589 39.7476-16.165Q32.2987-14.4712 25.85-11.375Q19.4013-8.27881 15.3301-3.98134Q11.2588 0.316136 11.2588 5.65406Q11.2588 12.5199 18.3458 18.1845Q25.4328 23.8491 38.3201 27.2318Q51.2074 30.6145 68.5682 30.6145Z"/>
  </g>
  <g id="Thin-L" transform="matrix(1 0 0 1 789.72 1556)">
   <path d="M49.5195-78.5578Q49.5195-71.9623 53.8939-67.0677Q58.2682-62.1731 64.7622-61.4664L64.7622-1.55408Q64.7622 2.09512 65.0351 4.49978Q65.3081 6.90445 65.7539 8.0525Q66.1998 9.20055 66.7185 9.20055Q67.1598 9.20055 67.6057 8.0525Q68.0515 6.90445 68.3617 4.49978Q68.6718 2.09512 68.6718-1.55408L68.6718-61.4664Q75.0883-62.1701 79.4642-67.0662Q83.8401-71.9623 83.8401-78.5578Q83.8401-83.3066 81.5461-87.199Q79.2521-91.0914 75.3612-93.4256Q71.4704-95.7598 66.7185-95.7598Q61.8892-95.7598 58.0371-93.4256Q54.1849-91.0914 51.8522-87.199Q49.5195-83.3066 49.5195-78.5578ZM61.1896-78.2683Q58.8926-78.2683 57.0932-80.0305Q55.2937-81.7927 55.2937-84.1671Q55.2937-86.5415 57.0932-88.3022Q58.8926-90.063 61.1896-90.063Q63.567-90.063 65.2875-88.3022Q67.008-86.5415 67.008-84.1671Q67.008-81.7927 65.2875-80.0305Q63.567-78.2683 61.1896-78.2683ZM66.6411 28.0632Q82.9352 28.0632 95.4426 25.0469Q107.95 22.0306 115.064 16.7596Q122.178 11.4885 122.178 4.6498Q122.178-0.0095674 118.297-3.80492Q114.416-7.60026 108.12-10.3708Q101.825-13.1412 94.5348-14.6858Q87.2447-16.2304 80.1949-16.3108L80.1949-12.6646Q86.3118-12.5068 92.8876-11.2231Q99.4634-9.93939 105.131-7.65346Q110.799-5.36753 114.353-2.31761Q117.908 0.732316 117.908 4.503Q117.908 10.4299 111.105 14.8797Q104.303 19.3294 92.6886 21.8164Q81.0744 24.3034 66.6411 24.3034Q52.2821 24.3034 40.7082 21.8566Q29.1343 19.4098 22.2931 14.9601Q15.4519 10.5104 15.4519 4.503Q15.4519 0.732316 19.0065-2.31761Q22.561-5.36753 28.2673-7.65346Q33.9735-9.93939 40.5494-11.2231Q47.1252-12.5068 53.0873-12.6646L53.0873-16.3108Q46.1923-16.2304 38.8248-14.6858Q31.4573-13.1412 25.2393-10.3708Q19.0213-7.60026 15.1401-3.80492Q11.2588-0.0095674 11.2588 4.6498Q11.2588 11.4885 18.3729 16.7596Q25.4871 22.0306 37.9944 25.0469Q50.5017 28.0632 66.6411 28.0632Z"/>
  </g>
  <g id="Ultralight-L" transform="matrix(1 0 0 1 493.985 1556)">
   <path d="M49.9783-78.0851Q49.9783-71.865 54.2067-67.2901Q58.4351-62.7153 64.651-62.3005L64.651 2.06043Q64.651 4.45846 64.7779 5.97339Q64.9049 7.48833 65.1492 8.16371Q65.3935 8.8391 65.7454 8.8391Q66.006 8.8391 66.2502 8.16371Q66.4945 7.48833 66.6726 5.97339Q66.8506 4.45846 66.8506 2.06043L66.8506-62.3005Q72.9752-62.7262 77.1982-67.2956Q81.4211-71.865 81.4211-78.0851Q81.4211-82.4447 79.3218-86.0034Q77.2224-89.5621 73.6582-91.7017Q70.0941-93.8413 65.7454-93.8413Q61.3053-93.8413 57.7868-91.7017Q54.2683-89.5621 52.1233-86.0034Q49.9783-82.4447 49.9783-78.0851ZM60.4945-78.018Q58.406-78.018 56.7456-79.6273Q55.0852-81.2366 55.0852-83.4164Q55.0852-85.5962 56.7456-87.2109Q58.406-88.8257 60.4945-88.8257Q62.6634-88.8257 64.2379-87.2109Q65.8125-85.5962 65.8125-83.4164Q65.8125-81.2366 64.2379-79.6273Q62.6634-78.018 60.4945-78.018ZM65.6541 26.7564Q81.3504 26.7564 93.6631 23.9278Q105.976 21.0992 113.104 16.0297Q120.232 10.9602 120.232 4.13543Q120.232-0.176391 116.448-3.71455Q112.664-7.25272 106.473-9.85638Q100.282-12.46 93.0473-13.9282Q85.8128-15.3963 78.6379-15.4767L78.6379-13.0678Q85.1024-12.8961 91.9493-11.5984Q98.7961-10.3008 104.658-7.98711Q110.521-5.67337 114.186-2.59565Q117.852 0.482081 117.852 4.29447Q117.852 10.3326 110.897 14.8449Q103.941 19.3572 92.1116 21.872Q80.282 24.3868 65.6541 24.3868Q51.1283 24.3868 39.3389 21.9122Q27.5495 19.4376 20.5484 14.9253Q13.5473 10.413 13.5473 4.29447Q13.5473 0.482081 17.2131-2.59565Q20.8789-5.67337 26.7867-7.98711Q32.6946-10.3008 39.5415-11.5984Q46.3884-12.8961 52.6702-13.0678L52.6702-15.4767Q45.6779-15.3963 38.3521-13.9282Q31.0263-12.46 24.9265-9.85638Q18.8267-7.25272 15.0428-3.71455Q11.2588-0.176391 11.2588 4.13543Q11.2588 10.9602 18.3868 16.0297Q25.5149 21.0992 37.8276 23.9278Q50.1403 26.7564 65.6541 26.7564Z"/>
  </g>
  <g id="Black-M" transform="matrix(1 0 0 1 2861.85 1126)">
   <path d="M48.0235-72.046Q48.0235-64.224 52.5307-58.1037Q57.0379-51.9833 64.0167-49.542L64.0167-19.5003Q64.0167-15.3597 65.3463-11.2094Q66.6759-7.05924 68.4948-4.29186Q70.3137-1.52448 71.7243-1.52448Q73.1352-1.52448 74.9255-4.29186Q76.7159-7.05924 78.0426-11.2094Q79.3693-15.3597 79.3693-19.5003L79.3693-49.542Q86.4055-51.9207 90.9154-58.0724Q95.4254-64.224 95.4254-72.046Q95.4254-78.6117 92.2619-84.0159Q89.0984-89.4201 83.7255-92.6433Q78.3527-95.8664 71.7243-95.8664Q65.1533-95.8664 59.7803-92.6433Q54.4073-89.4201 51.2154-84.0159Q48.0235-78.6117 48.0235-72.046ZM65.0935-70.5719Q61.8959-70.5719 59.4424-73.0283Q56.9888-75.4848 56.9888-78.7391Q56.9888-82.0505 59.4424-84.4472Q61.8959-86.8438 65.0935-86.8438Q68.4675-86.8438 70.833-84.4472Q73.1984-82.0505 73.1984-78.7391Q73.1984-75.4848 70.833-73.0283Q68.4675-70.5719 65.0935-70.5719ZM71.5533 23.2398Q90.3658 23.2398 104.497 19.6326Q118.627 16.0253 126.505 9.52607Q134.383 3.02683 134.383-5.52907Q134.383-10.874 131.04-15.4719Q127.697-20.0698 121.625-23.7102Q115.554-27.3507 107.267-29.8209Q98.9796-32.2911 89.0358-33.3241L89.0358-18.2264Q95.2941-17.5364 100.584-16.3166Q105.873-15.0969 109.792-13.475Q113.71-11.853 115.867-9.86761Q118.025-7.88218 118.025-5.65556Q118.025-1.48879 112.076 1.60174Q106.127 4.69226 95.665 6.3843Q85.2032 8.07633 71.5533 8.07633Q57.9547 8.07633 47.467 6.3869Q36.9792 4.69747 31.0304 1.60695Q25.0816-1.48358 25.0816-5.65556Q25.0816-7.88218 27.2391-9.86761Q29.3966-11.853 33.3147-13.475Q37.2328-15.0969 42.5223-16.3166Q47.8119-17.5364 54.0708-18.2264L54.0708-33.3241Q44.1835-32.2911 35.8682-29.8209Q27.5529-27.3507 21.481-23.7102Q15.4091-20.0698 12.0659-15.4719Q8.72266-10.874 8.72266-5.52907Q8.72266 3.02683 16.6006 9.52607Q24.4786 16.0253 38.6094 19.6326Q52.7402 23.2398 71.5533 23.2398Z"/>
  </g>
  <g id="Heavy-M" transform="matrix(1 0 0 1 2569.02 1126)">
   <path d="M45.3654-71.6695Q45.3654-64.1778 49.7292-58.343Q54.093-52.5082 60.8416-50.2729L60.8416-20.0387Q60.8416-15.1752 62.0278-10.8304Q63.2141-6.48562 64.8516-3.7713Q66.4891-1.05697 67.7993-1.05697Q69.1072-1.05697 70.7229-3.7713Q72.3386-6.48562 73.5179-10.8304Q74.6972-15.1752 74.6972-20.0387L74.6972-50.2729Q81.487-52.4484 85.8589-58.3131Q90.2308-64.1778 90.2308-71.6695Q90.2308-77.8753 87.2338-82.9912Q84.2369-88.1071 79.1509-91.157Q74.065-94.2069 67.7993-94.2069Q61.5749-94.2069 56.4902-91.157Q51.4054-88.1071 48.3854-82.9912Q45.3654-77.8753 45.3654-71.6695ZM61.493-70.3068Q58.458-70.3068 56.1397-72.6319Q53.8214-74.9571 53.8214-78.0382Q53.8214-81.1629 56.1397-83.4363Q58.458-85.7098 61.493-85.7098Q64.6776-85.7098 66.9198-83.4363Q69.1621-81.1629 69.1621-78.0382Q69.1621-74.9571 66.9198-72.6319Q64.6776-70.3068 61.493-70.3068ZM67.666 22.0921Q85.5114 22.0921 98.7548 18.6297Q111.998 15.1674 119.306 9.07181Q126.614 2.97626 126.614-4.82231Q126.614-10.0447 123.27-14.4636Q119.926-18.8826 114.05-22.3082Q108.174-25.7338 100.464-27.9665Q92.7541-30.1993 83.9713-31.0032L83.9713-17.7806Q89.5842-17.2361 94.604-16.0809Q99.6238-14.9258 103.493-13.2917Q107.362-11.6575 109.568-9.60594Q111.775-7.55438 111.775-5.19823Q111.775-1.02294 106.112 2.10017Q100.45 5.22328 90.5114 6.94776Q80.5729 8.67224 67.666 8.67224Q54.789 8.67224 44.8381 6.9571Q34.8871 5.24196 29.2234 2.11885Q23.5596-1.00426 23.5596-5.19823Q23.5596-7.55438 25.766-9.60594Q27.9725-11.6575 31.8428-13.2917Q35.7132-14.9258 40.733-16.0809Q45.7528-17.2361 51.3608-17.7806L51.3608-31.0032Q42.6265-30.1993 34.8922-27.9665Q27.1578-25.7338 21.2844-22.3082Q15.4111-18.8826 12.0669-14.4636Q8.72266-10.0447 8.72266-4.82231Q8.72266 2.97626 16.0307 9.07181Q23.3387 15.1674 36.5821 18.6297Q49.8256 22.0921 67.666 22.0921Z"/>
  </g>
  <g id="Bold-M" transform="matrix(1 0 0 1 2276.66 1126)">
   <path d="M42.3919-71.2484Q42.3919-64.1262 46.5953-58.6108Q50.7986-53.0954 57.2898-51.0905L57.2898-20.6409Q57.2898-14.9689 58.3156-10.4064Q59.3414-5.84395 60.7761-3.18897Q62.2107-0.533994 63.4087-0.533994Q64.6012-0.533994 66.0216-3.18897Q67.4419-5.84395 68.4564-10.4064Q69.4708-14.9689 69.4708-20.6409L69.4708-51.0905Q75.985-53.0387 80.2025-58.5824Q84.42-64.1262 84.42-71.2484Q84.42-77.0516 81.6093-81.8449Q78.7985-86.6383 74.0336-89.4944Q69.2686-92.3505 63.4087-92.3505Q57.5718-92.3505 52.8096-89.4944Q48.0474-86.6383 45.2197-81.8449Q42.3919-77.0516 42.3919-71.2484ZM57.4654-70.0102Q54.6121-70.0102 52.4452-72.1885Q50.2783-74.3668 50.2783-77.2541Q50.2783-80.17 52.4452-82.3056Q54.6121-84.4412 57.4654-84.4412Q60.438-84.4412 62.5424-82.3056Q64.6469-80.17 64.6469-77.2541Q64.6469-74.3668 62.5424-72.1885Q60.438-70.0102 57.4654-70.0102ZM63.3176 20.8081Q80.0811 20.8081 92.3318 17.5079Q104.583 14.2076 111.253 8.56366Q117.923 2.91968 117.923-4.0317Q117.923-9.11686 114.578-13.3357Q111.233-17.5546 105.576-20.7398Q99.9194-23.925 92.8546-25.8921Q85.7899-27.8593 78.3059-28.4069L78.3059-17.282Q83.1968-16.9001 87.9148-15.8173Q92.6328-14.7344 96.447-13.0866Q100.261-11.4388 102.522-9.31322Q104.784-7.18768 104.784-4.68665Q104.784-0.501827 99.4415 2.65773Q94.0993 5.81729 84.7463 7.57807Q75.3932 9.33885 63.3176 9.33885Q51.2477 9.33885 41.8973 7.59495Q32.5468 5.85105 27.2019 2.69149Q21.857-0.46807 21.857-4.68665Q21.857-7.18768 24.1182-9.31322Q26.3794-11.4388 30.1964-13.0866Q34.0133-14.7344 38.7313-15.8173Q43.4493-16.9001 48.3292-17.282L48.3292-28.4069Q40.8848-27.8593 33.8003-25.8921Q26.7157-23.925 21.0645-20.7398Q15.4132-17.5546 12.0679-13.3357Q8.72266-9.11686 8.72266-4.0317Q8.72266 2.91968 15.3931 8.56366Q22.0636 14.2076 34.3144 17.5079Q46.5651 20.8081 63.3176 20.8081Z"/>
  </g>
  <g id="Semibold-M" transform="matrix(1 0 0 1 1982.94 1126)">
   <path d="M40.342-70.9581Q40.342-64.0905 44.4348-58.7954Q48.5275-53.5003 54.8412-51.6542L54.8412-21.056Q54.8412-14.8267 55.7565-10.1142Q56.6717-5.40159 57.9665-2.78753Q59.2613-0.173459 60.3818-0.173459Q61.4948-0.173459 62.7805-2.78753Q64.0662-5.40159 64.967-10.1142Q65.8678-14.8267 65.8678-21.056L65.8678-51.6542Q72.192-53.4456 76.303-58.7681Q80.414-64.0905 80.414-70.9581Q80.414-76.4837 77.7317-81.0547Q75.0494-85.6257 70.5057-88.3482Q65.9621-91.0708 60.3818-91.0708Q54.8121-91.0708 50.2723-88.3482Q45.7325-85.6257 43.0372-81.0547Q40.342-76.4837 40.342-70.9581ZM54.6887-69.8058Q51.9608-69.8058 49.8982-71.8828Q47.8356-73.9599 47.8356-76.7136Q47.8356-79.4854 49.8982-81.526Q51.9608-83.5667 54.6887-83.5667Q57.5152-83.5667 59.5247-81.526Q61.5342-79.4854 61.5342-76.7136Q61.5342-73.9599 59.5247-71.8828Q57.5152-69.8058 54.6887-69.8058ZM60.3197 19.923Q76.3374 19.923 87.9038 16.7345Q99.4702 13.546 105.701 8.21334Q111.932 2.88068 111.932-3.48666Q111.932-8.47725 108.586-12.5582Q105.24-16.6391 99.7342-19.6586Q94.2285-22.678 87.6086-24.462Q80.9888-26.2461 74.4002-26.617L74.4002-16.9382Q78.7934-16.6685 83.3033-15.6355Q87.8133-14.6025 91.5896-12.9453Q95.366-11.288 97.6649-9.11143Q99.9639-6.93488 99.9639-4.33396Q99.9639-0.142573 94.8426 3.04211Q89.7213 6.2268 80.7718 8.01261Q71.8224 9.79841 60.3197 9.79841Q48.8064 9.79841 39.8699 8.03468Q30.9334 6.27095 25.8084 3.08626Q20.6833-0.0984251 20.6833-4.33396Q20.6833-6.93488 22.9822-9.11143Q25.2811-11.288 29.0613-12.9453Q32.8415-14.6025 37.3514-15.6355Q41.8614-16.6685 46.2393-16.9382L46.2393-26.617Q39.6841-26.2461 33.0475-24.462Q26.411-22.678 20.9129-19.6586Q15.4147-16.6391 12.0687-12.5582Q8.72266-8.47725 8.72266-3.48666Q8.72266 2.88068 14.9536 8.21334Q21.1846 13.546 32.751 16.7345Q44.3174 19.923 60.3197 19.923Z"/>
  </g>
  <g id="Medium-M" transform="matrix(1 0 0 1 1688.5 1126)">
   <path d="M38.7877-70.738Q38.7877-64.0635 42.7966-58.9354Q46.8055-53.8072 52.9846-52.0816L52.9846-21.3708Q52.9846-14.7189 53.816-9.89253Q54.6473-5.06617 55.8361-2.48313Q57.0249 0.0999139 58.0867 0.0999139Q59.1394 0.0999139 60.323-2.48313Q61.5066-5.06617 62.3212-9.89253Q63.1358-14.7189 63.1358-21.3708L63.1358-52.0816Q69.3159-53.7542 73.3462-58.9088Q77.3765-64.0635 77.3765-70.738Q77.3765-76.0531 74.7916-80.4555Q72.2066-84.8579 67.8307-87.4791Q63.4549-90.1004 58.0867-90.1004Q52.7196-90.1004 48.3484-87.4791Q43.9771-84.8579 41.3824-80.4555Q38.7877-76.0531 38.7877-70.738ZM52.5834-69.6508Q49.9505-69.6508 47.967-71.651Q45.9835-73.6513 45.9835-76.3037Q45.9835-78.9664 47.967-80.935Q49.9505-82.9035 52.5834-82.9035Q55.2991-82.9035 57.2365-80.935Q59.1739-78.9664 59.1739-76.3037Q59.1739-73.6513 57.2365-71.651Q55.2991-69.6508 52.5834-69.6508ZM58.0467 19.2518Q73.4988 19.2518 84.5463 16.1481Q95.5938 13.0443 101.491 7.94772Q107.389 2.85111 107.389-3.07338Q107.389-7.99227 104.043-11.9686Q100.696-15.945 95.3047-18.8387Q89.9134-21.7325 83.6309-23.3777Q77.3485-25.0229 71.4388-25.2599L71.4388-16.6775Q75.4545-16.4929 79.8067-15.4977Q84.1589-14.5025 87.9066-12.8381Q91.6542-11.1736 93.9818-8.95842Q96.3093-6.7432 96.3093-4.06655Q96.3093 0.129828 91.3555 3.33357Q86.4017 6.53731 77.7583 8.34209Q69.1148 10.1469 58.0467 10.1469Q46.9553 10.1469 38.3327 8.3681Q29.7101 6.58934 24.7517 3.3856Q19.7933 0.181855 19.7933-4.06655Q19.7933-6.7432 22.1208-8.95842Q24.4484-11.1736 28.2006-12.8381Q31.9529-14.5025 36.3051-15.4977Q40.6573-16.4929 44.6546-16.6775L44.6546-25.2599Q38.7736-25.0229 32.4768-23.3777Q26.18-21.7325 20.7979-18.8387Q15.4159-15.945 12.0693-11.9686Q8.72266-7.99227 8.72266-3.07338Q8.72266 2.85111 14.6204 7.94772Q20.518 13.0443 31.5655 16.1481Q42.613 19.2518 58.0467 19.2518Z"/>
  </g>
  <g id="Regular-M" transform="matrix(1 0 0 1 1394.75 1126)">
   <path d="M36.7603-70.4509Q36.7603-64.0283 40.6599-59.118Q44.5594-54.2076 50.5629-52.639L50.5629-21.7814Q50.5629-14.5782 51.2849-9.60345Q52.0069-4.62867 53.0574-2.08609Q54.1078 0.456487 55.0931 0.456487Q56.0671 0.456487 57.1176-2.08609Q58.168-4.62867 58.8702-9.60345Q59.5724-14.5782 59.5724-21.7814L59.5724-52.639Q65.5646-54.1566 69.4896-59.0925Q73.4146-64.0283 73.4146-70.4509Q73.4146-75.4914 70.9566-79.6739Q68.4987-83.8564 64.3416-86.3455Q60.1846-88.8346 55.0931-88.8346Q49.9903-88.8346 45.8389-86.3455Q41.6876-83.8564 39.224-79.6739Q36.7603-75.4914 36.7603-70.4509ZM49.8372-69.4486Q47.3283-69.4486 45.448-71.3487Q43.5677-73.2488 43.5677-75.7691Q43.5677-78.2894 45.448-80.164Q47.3283-82.0386 49.8372-82.0386Q52.4085-82.0386 54.2519-80.164Q56.0954-78.2894 56.0954-75.7691Q56.0954-73.2488 54.2519-71.3487Q52.4085-69.4486 49.8372-69.4486ZM55.0818 18.3764Q69.7963 18.3764 80.1669 15.3832Q90.5376 12.39 96.0006 7.60125Q101.464 2.81253 101.464-2.53433Q101.464-7.35968 98.1163-11.1996Q94.7689-15.0395 89.527-17.7694Q84.285-20.4993 78.4426-21.9633Q72.6002-23.4274 67.576-23.4897L67.576-16.3375Q71.0995-16.2639 75.2459-15.3179Q79.3923-14.372 83.1025-12.6983Q86.8127-11.0245 89.1776-8.75884Q91.5425-6.49318 91.5425-3.71774Q91.5425 0.485134 86.8072 3.71373Q82.0718 6.94232 73.8275 8.77185Q65.5832 10.6014 55.0818 10.6014Q44.5408 10.6014 36.3276 8.803Q28.1144 7.00462 23.3734 3.77603Q18.6324 0.547438 18.6324-3.71774Q18.6324-6.49318 20.9973-8.75884Q23.3622-11.0245 27.0781-12.6983Q30.7939-14.372 34.9404-15.3179Q39.0868-16.2639 42.5876-16.3375L42.5876-23.4897Q37.5861-23.4274 31.7323-21.9633Q25.8786-20.4993 20.648-17.7694Q15.4173-15.0395 12.07-11.1996Q8.72266-7.35968 8.72266-2.53433Q8.72266 2.81253 14.1857 7.60125Q19.6487 12.39 30.0193 15.3832Q40.39 18.3764 55.0818 18.3764Z"/>
  </g>
  <g id="Light-M" transform="matrix(1 0 0 1 1099.33 1126)">
   <path d="M37.3675-69.8253Q37.3675-63.8995 41.0738-59.4123Q44.7802-54.9252 50.4158-53.743L50.4158-16.9976Q50.4158-11.4504 50.9446-7.65316Q51.4734-3.85592 52.257-1.9389Q53.0407-0.0218868 53.8052-0.0218868Q54.54-0.0218868 55.3237-1.9389Q56.1073-3.85592 56.6347-7.65316Q57.1621-11.4504 57.1621-16.9976L57.1621-53.743Q62.7679-54.8926 66.4905-59.3961Q70.2132-63.8995 70.2132-69.8253Q70.2132-74.3507 68.0128-78.0916Q65.8124-81.8325 62.0878-84.0641Q58.3631-86.2956 53.8052-86.2956Q49.2175-86.2956 45.5078-84.0641Q41.798-81.8325 39.5827-78.0916Q37.3675-74.3507 37.3675-69.8253ZM48.9173-69.1174Q46.6843-69.1174 44.988-70.8151Q43.2917-72.5129 43.2917-74.7755Q43.2917-77.0382 44.988-78.7197Q46.6843-80.4011 48.9173-80.4011Q51.2125-80.4011 52.8628-78.7197Q54.5131-77.0382 54.5131-74.7755Q54.5131-72.5129 52.8628-70.8151Q51.2125-69.1174 48.9173-69.1174ZM53.7755 16.6469Q67.6988 16.6469 77.8119 13.9021Q87.9249 11.1572 93.4063 6.6353Q98.8878 2.11337 98.8878-3.21509Q98.8878-7.58047 95.6692-11.08Q92.4507-14.5795 87.3467-17.0886Q82.2427-19.5977 76.4739-20.9606Q70.7051-22.3234 65.5153-22.3858L65.5153-16.8711Q69.4988-16.779 74.004-15.8147Q78.5092-14.8504 82.477-13.1398Q86.4448-11.4293 88.9568-9.12682Q91.4689-6.82436 91.4689-3.99372Q91.4689 0.356341 86.5312 3.66773Q81.5934 6.97912 73.064 8.84544Q64.5345 10.7118 53.7755 10.7118Q43.0136 10.7118 34.5153 8.87659Q26.017 7.04142 21.0644 3.73003Q16.1118 0.418645 16.1118-3.99372Q16.1118-6.82436 18.6238-9.12682Q21.1359-11.4293 25.1186-13.1398Q29.1012-14.8504 33.6064-15.8147Q38.1116-16.779 42.0356-16.8711L42.0356-22.3858Q36.9053-22.3234 31.1068-20.9606Q25.3082-19.5977 20.234-17.0886Q15.1598-14.5795 11.9412-11.08Q8.72266-7.58047 8.72266-3.21509Q8.72266 2.11337 14.2041 6.6353Q19.6855 11.1572 29.7985 13.9021Q39.9116 16.6469 53.7755 16.6469Z"/>
  </g>
  <g id="Thin-M" transform="matrix(1 0 0 1 804.332 1126)">
   <path d="M38.1705-68.998Q38.1705-63.7292 41.6214-59.8017Q45.0722-55.8742 50.2211-55.203L50.2211-10.6708Q50.2211-7.3136 50.4944-5.07374Q50.7677-2.83388 51.1985-1.74423Q51.6293-0.654575 52.1018-0.654575Q52.5203-0.654575 52.9511-1.74423Q53.3819-2.83388 53.6781-5.07374Q53.9743-7.3136 53.9743-10.6708L53.9743-55.203Q59.0691-55.866 62.5241-59.7976Q65.979-63.7292 65.979-68.998Q65.979-72.842 64.1193-75.9989Q62.2596-79.1558 59.1068-81.0466Q55.954-82.9375 52.1018-82.9375Q48.1955-82.9375 45.0698-81.0466Q41.944-79.1558 40.0573-75.9989Q38.1705-72.842 38.1705-68.998ZM47.7006-68.6794Q45.8326-68.6794 44.3797-70.1095Q42.9267-71.5395 42.9267-73.4615Q42.9267-75.3835 44.3797-76.8094Q45.8326-78.2354 47.7006-78.2354Q49.6308-78.2354 51.0256-76.8094Q52.4203-75.3835 52.4203-73.4615Q52.4203-71.5395 51.0256-70.1095Q49.6308-68.6794 47.7006-68.6794ZM52.0477 14.3595Q64.9247 14.3595 74.6971 11.9432Q84.4695 9.52684 89.9752 5.35776Q95.481 1.18867 95.481-4.11545Q95.481-7.87248 92.4328-10.9218Q89.3846-13.9712 84.4631-16.1883Q79.5416-18.4053 73.8701-19.6344Q68.1987-20.8634 62.7899-20.9257L62.7899-17.5768Q67.3817-17.4604 72.3614-16.4717Q77.3411-15.4831 81.6496-13.7239Q85.9581-11.9646 88.6648-9.6135Q91.3716-7.26238 91.3716-4.35874Q91.3716 0.186002 86.1662 3.60689Q80.9608 7.02779 72.0541 8.94278Q63.1474 10.8578 52.0477 10.8578Q40.9939 10.8578 32.1184 8.97393Q23.2429 7.09009 18.0104 3.6692Q12.778 0.248306 12.778-4.35874Q12.778-7.26238 15.4847-9.6135Q18.1915-11.9646 22.527-13.7239Q26.8625-15.4831 31.8422-16.4717Q36.8219-17.4604 41.3056-17.5768L41.3056-20.9257Q36.005-20.8634 30.2794-19.6344Q24.5538-18.4053 19.6865-16.1883Q14.8191-13.9712 11.7709-10.9218Q8.72266-7.87248 8.72266-4.11545Q8.72266 1.18867 14.2284 5.35776Q19.7341 9.52684 29.5065 11.9432Q39.2789 14.3595 52.0477 14.3595Z"/>
  </g>
  <g id="Ultralight-M" transform="matrix(1 0 0 1 508.496 1126)">
   <path d="M38.5818-68.5742Q38.5818-63.6419 41.9018-60.0011Q45.2217-56.3603 50.1214-55.9508L50.1214-7.43015Q50.1214-5.19474 50.2638-3.75257Q50.4062-2.3104 50.6563-1.64452Q50.9064-0.978635 51.2293-0.978635Q51.4858-0.978635 51.7359-1.64452Q51.9859-2.3104 52.1637-3.75257Q52.3416-5.19474 52.3416-7.43015L52.3416-55.9508Q57.1746-56.3645 60.4925-60.0032Q63.8103-63.6419 63.8103-68.5742Q63.8103-72.0692 62.1251-74.927Q60.4399-77.7847 57.58-79.5011Q54.7201-81.2175 51.2293-81.2175Q47.672-81.2175 44.8454-79.5011Q42.0188-77.7847 40.3003-74.927Q38.5818-72.0692 38.5818-68.5742ZM47.0774-68.4551Q45.3964-68.4551 44.0681-69.748Q42.7398-71.0409 42.7398-72.7885Q42.7398-74.536 44.0681-75.831Q45.3964-77.1261 47.0774-77.1261Q48.8206-77.1261 50.0846-75.831Q51.3485-74.536 51.3485-72.7885Q51.3485-71.0409 50.0846-69.748Q48.8206-68.4551 47.0774-68.4551ZM51.1628 13.1879Q63.5038 13.1879 73.1017 10.9398Q82.6996 8.69176 88.2178 4.7034Q93.736 0.715045 93.736-4.57662Q93.736-8.02204 90.7751-10.8408Q87.8141-13.6596 82.9861-15.7271Q78.1581-17.7946 72.5365-18.9551Q66.9149-20.1156 61.3939-20.1779L61.3939-17.9382Q66.2973-17.8094 71.5201-16.8083Q76.7429-15.8072 81.2258-14.023Q85.7088-12.2388 88.5153-9.86278Q91.3217-7.48673 91.3217-4.54569Q91.3217 0.0987547 85.9792 3.57573Q80.6367 7.05271 71.5368 8.99263Q62.437 10.9326 51.1628 10.9326Q39.9594 10.9326 30.8907 9.02379Q21.822 7.11502 16.4462 3.63804Q11.0704 0.161059 11.0704-4.54569Q11.0704-7.48673 13.8769-9.86278Q16.6833-12.2388 21.1996-14.023Q25.7158-15.8072 30.9386-16.8083Q36.1613-17.8094 40.9317-17.9382L40.9317-20.1779Q35.5438-20.1156 29.8556-18.9551Q24.1675-17.7946 19.406-15.7271Q14.6446-13.6596 11.6836-10.8408Q8.72266-8.02204 8.72266-4.57662Q8.72266 0.715045 14.2409 4.7034Q19.7591 8.69176 29.357 10.9398Q38.9549 13.1879 51.1628 13.1879Z"/>
  </g>
  <g id="Black-S" transform="matrix(1 0 0 1 2876.22 696)">
   <path d="M38.4766-64.1602Q38.4766-57.959 42.041-53.1006Q45.6055-48.2422 51.123-46.2891L51.123-22.4609Q51.123-19.5312 52.1973-16.4062Q53.2715-13.2812 54.7363-11.1328Q56.2012-8.98438 57.3242-8.98438Q58.4473-8.98438 59.8877-11.1328Q61.3281-13.2812 62.4023-16.4062Q63.4766-19.5312 63.4766-22.4609L63.4766-46.2891Q69.043-48.1934 72.6074-53.0762Q76.1719-57.959 76.1719-64.1602Q76.1719-69.3848 73.6572-73.6816Q71.1426-77.9785 66.8701-80.542Q62.5977-83.1055 57.3242-83.1055Q52.0996-83.1055 47.8271-80.542Q43.5547-77.9785 41.0156-73.6816Q38.4766-69.3848 38.4766-64.1602ZM52.0508-62.9883Q49.5117-62.9883 47.5586-64.9414Q45.6055-66.8945 45.6055-69.4824Q45.6055-72.1191 47.5586-74.0234Q49.5117-75.9277 52.0508-75.9277Q54.7363-75.9277 56.6162-74.0234Q58.4961-72.1191 58.4961-69.4824Q58.4961-66.8945 56.6162-64.9414Q54.7363-62.9883 52.0508-62.9883ZM57.1777 10.8398Q72.168 10.8398 83.4961 7.9834Q94.8242 5.12695 101.172-0.0732422Q107.52-5.27344 107.52-12.207Q107.52-16.4062 104.907-20.0439Q102.295-23.6816 97.4854-26.5869Q92.6758-29.4922 86.0107-31.4941Q79.3457-33.4961 71.1914-34.375L71.1914-22.0703Q76.3184-21.4844 80.5664-20.5078Q84.8145-19.5312 87.915-18.2617Q91.0156-16.9922 92.7002-15.4541Q94.3848-13.916 94.3848-12.207Q94.3848-8.93555 89.624-6.51855Q84.8633-4.10156 76.4893-2.7832Q68.1152-1.46484 57.1777-1.46484Q46.2891-1.46484 37.8906-2.7832Q29.4922-4.10156 24.7314-6.51855Q19.9707-8.93555 19.9707-12.207Q19.9707-13.916 21.6553-15.4541Q23.3398-16.9922 26.4404-18.2617Q29.541-19.5312 33.7891-20.5078Q38.0371-21.4844 43.1641-22.0703L43.1641-34.375Q35.0586-33.4961 28.3691-31.4941Q21.6797-29.4922 16.8701-26.5869Q12.0605-23.6816 9.44824-20.0439Q6.83594-16.4062 6.83594-12.207Q6.83594-5.27344 13.1836-0.0732422Q19.5312 5.12695 30.8594 7.9834Q42.1875 10.8398 57.1777 10.8398Z"/>
  </g>
  <g id="Heavy-S" transform="matrix(1 0 0 1 2582.67 696)">
   <path d="M36.1256-63.9181Q36.1256-57.9359 39.5921-53.2677Q43.0586-48.5994 48.4263-46.7731L48.4263-23.5327Q48.4263-19.7733 49.4026-16.3313Q50.3788-12.8894 51.7227-10.7064Q53.0665-8.5234 54.1319-8.5234Q55.1974-8.5234 56.5226-10.7064Q57.8477-12.8894 58.8182-16.3313Q59.7887-19.7733 59.7887-23.5327L59.7887-46.7731Q65.1938-48.5506 68.6661-53.2433Q72.1383-57.9359 72.1383-63.9181Q72.1383-68.9007 69.7331-73.0075Q67.328-77.1142 63.2457-79.5624Q59.1634-82.0106 54.1319-82.0106Q49.1378-82.0106 45.0555-79.5624Q40.9732-77.1142 38.5494-73.0075Q36.1256-68.9007 36.1256-63.9181ZM49.089-62.8039Q46.6537-62.8039 44.7927-64.6706Q42.9318-66.5373 42.9318-69.0099Q42.9318-71.5199 44.7927-73.3435Q46.6537-75.1671 49.089-75.1671Q51.6478-75.1671 53.447-73.3435Q55.2462-71.5199 55.2462-69.0099Q55.2462-66.5373 53.447-64.6706Q51.6478-62.8039 49.089-62.8039ZM54.02 10.0792Q68.2842 10.0792 78.8863 7.31498Q89.4884 4.55073 95.3463-0.338305Q101.204-5.22734 101.204-11.5156Q101.204-15.6687 98.5745-19.1969Q95.9449-22.7251 91.2852-25.4748Q86.6254-28.2245 80.4444-30.0363Q74.2634-31.8481 67.1233-32.5311L67.1233-21.6209Q71.6394-21.1617 75.6109-20.2427Q79.5823-19.3238 82.608-18.0485Q85.6337-16.7732 87.3413-15.1833Q89.0489-13.5933 89.0489-11.7806Q89.0489-8.52067 84.559-6.08639Q80.0691-3.65211 72.1791-2.3107Q64.2891-0.969292 54.02-0.969292Q43.7767-0.969292 35.8738-2.30494Q27.971-3.64058 23.481-6.07486Q18.9911-8.50914 18.9911-11.7806Q18.9911-13.5933 20.6987-15.1833Q22.4064-16.7732 25.432-18.0485Q28.4577-19.3238 32.4292-20.2427Q36.4006-21.1617 40.9168-21.6209L40.9168-32.5311Q33.814-31.8481 27.6143-30.0363Q21.4146-28.2245 16.7549-25.4748Q12.0951-22.7251 9.46553-19.1969Q6.83594-15.6687 6.83594-11.5156Q6.83594-5.22734 12.6938-0.338305Q18.5517 4.55073 29.1538 7.31498Q39.7558 10.0792 54.02 10.0792Z"/>
  </g>
  <g id="Bold-S" transform="matrix(1 0 0 1 2289.49 696)">
   <path d="M33.4961-63.6475Q33.4961-57.9102 36.853-53.4546Q40.21-48.999 45.4102-47.3145L45.4102-24.7314Q45.4102-20.0439 46.2769-16.2476Q47.1436-12.4512 48.3521-10.2295Q49.5605-8.00781 50.5615-8.00781Q51.5625-8.00781 52.7588-10.2295Q53.9551-12.4512 54.8096-16.2476Q55.6641-20.0439 55.6641-24.7314L55.6641-47.3145Q60.8887-48.9502 64.2578-53.4302Q67.627-57.9102 67.627-63.6475Q67.627-68.3594 65.3442-72.2534Q63.0615-76.1475 59.1919-78.4668Q55.3223-80.7861 50.5615-80.7861Q45.8252-80.7861 41.9556-78.4668Q38.0859-76.1475 35.791-72.2534Q33.4961-68.3594 33.4961-63.6475ZM45.7764-62.5977Q43.457-62.5977 41.6992-64.3677Q39.9414-66.1377 39.9414-68.4814Q39.9414-70.8496 41.6992-72.583Q43.457-74.3164 45.7764-74.3164Q48.1934-74.3164 49.9023-72.583Q51.6113-70.8496 51.6113-68.4814Q51.6113-66.1377 49.9023-64.3677Q48.1934-62.5977 45.7764-62.5977ZM50.4883 9.22852Q63.9404 9.22852 73.7305 6.56738Q83.5205 3.90625 88.8306-0.634766Q94.1406-5.17578 94.1406-10.7422Q94.1406-14.8438 91.4917-18.2495Q88.8428-21.6553 84.3506-24.231Q79.8584-26.8066 74.2188-28.4058Q68.5791-30.0049 62.5732-30.4688L62.5732-21.1182Q66.4062-20.8008 70.0684-19.9463Q73.7305-19.0918 76.6724-17.8101Q79.6143-16.5283 81.3477-14.8804Q83.0811-13.2324 83.0811-11.3037Q83.0811-8.05664 78.894-5.60303Q74.707-3.14941 67.3584-1.78223Q60.0098-0.415039 50.4883-0.415039Q40.9668-0.415039 33.6182-1.77002Q26.2695-3.125 22.0825-5.57861Q17.8955-8.03223 17.8955-11.3037Q17.8955-13.2324 19.6289-14.8804Q21.3623-16.5283 24.3042-17.8101Q27.2461-19.0918 30.9082-19.9463Q34.5703-20.8008 38.4033-21.1182L38.4033-30.4688Q32.4219-30.0049 26.77-28.4058Q21.1182-26.8066 16.626-24.231Q12.1338-21.6553 9.48486-18.2495Q6.83594-14.8438 6.83594-10.7422Q6.83594-5.17578 12.146-0.634766Q17.4561 3.90625 27.2461 6.56738Q37.0361 9.22852 50.4883 9.22852Z"/>
  </g>
  <g id="Semibold-S" transform="matrix(1 0 0 1 1995.21 696)">
   <path d="M31.6832-63.4608Q31.6832-57.8924 34.9646-53.5834Q38.246-49.2745 43.3307-47.6877L43.3307-25.5579Q43.3307-20.2306 44.1218-16.1898Q44.913-12.149 46.0282-9.90068Q47.1434-7.65234 48.0999-7.65234Q49.0564-7.65234 50.1639-9.90068Q51.2713-12.149 52.0458-16.1898Q52.8203-20.2306 52.8203-25.5579L52.8203-47.6877Q57.9205-49.2257 61.2186-53.559Q64.5166-57.8924 64.5166-63.4608Q64.5166-67.9861 62.3183-71.7335Q60.12-75.481 56.397-77.7114Q52.674-79.9419 48.0999-79.9419Q43.5413-79.9419 39.8183-77.7114Q36.0953-75.481 33.8893-71.7335Q31.6832-67.9861 31.6832-63.4608ZM43.4925-62.4555Q41.2531-62.4555 39.5664-64.1588Q37.8797-65.8622 37.8797-68.1171Q37.8797-70.3875 39.5664-72.0587Q41.2531-73.7299 43.4925-73.7299Q45.8117-73.7299 47.4585-72.0587Q49.1053-70.3875 49.1053-68.1171Q49.1053-65.8622 47.4585-64.1588Q45.8117-62.4555 43.4925-62.4555ZM48.0533 8.64199Q60.9456 8.64199 70.1758 6.05195Q79.406 3.46191 84.3383-0.83916Q89.2707-5.14023 89.2707-10.209Q89.2707-14.275 86.6084-17.5963Q83.9462-20.9177 79.5695-23.3734Q75.1929-25.8291 69.9265-27.2816Q64.6601-28.7341 59.4362-29.0469L59.4362-20.7716Q62.7982-20.552 66.2471-19.7419Q69.6959-18.9318 72.58-17.6457Q75.4642-16.3595 77.2153-14.6715Q78.9665-12.9836 78.9665-10.9749Q78.9665-7.73672 74.9883-5.26978Q71.0102-2.80283 64.0348-1.41787Q57.0594-0.0329102 48.0533-0.0329102Q39.0295-0.0329102 32.063-1.40122Q25.0965-2.76953 21.1183-5.23647Q17.1401-7.70342 17.1401-10.9749Q17.1401-12.9836 18.8913-14.6715Q20.6425-16.3595 23.5266-17.6457Q26.4107-18.9318 29.8596-19.7419Q33.3084-20.552 36.6704-20.7716L36.6704-29.0469Q31.4621-28.7341 26.1879-27.2816Q20.9138-25.8291 16.5371-23.3734Q12.1604-20.9177 9.49819-17.5963Q6.83594-14.275 6.83594-10.209Q6.83594-5.14023 11.7683-0.83916Q16.7007 3.46191 25.9309 6.05195Q35.161 8.64199 48.0533 8.64199Z"/>
  </g>
  <g id="Medium-S" transform="matrix(1 0 0 1 1700.35 696)">
   <path d="M30.3086-63.3193Q30.3086-57.8789 33.5327-53.6812Q36.7568-49.4834 41.7539-47.9707L41.7539-26.1846Q41.7539-20.3721 42.4878-16.146Q43.2217-11.9199 44.2661-9.65137Q45.3105-7.38281 46.2334-7.38281Q47.1562-7.38281 48.1963-9.65137Q49.2363-11.9199 49.9502-16.146Q50.6641-20.3721 50.6641-26.1846L50.6641-47.9707Q55.6699-49.4346 58.9141-53.6567Q62.1582-57.8789 62.1582-63.3193Q62.1582-67.7031 60.0239-71.3394Q57.8896-74.9756 54.2778-77.1387Q50.666-79.3018 46.2334-79.3018Q41.8096-79.3018 38.1978-77.1387Q34.5859-74.9756 32.4473-71.3394Q30.3086-67.7031 30.3086-63.3193ZM41.7607-62.3477Q39.582-62.3477 37.9492-64.0005Q36.3164-65.6533 36.3164-67.8408Q36.3164-70.0371 37.9492-71.6611Q39.582-73.2852 41.7607-73.2852Q44.0059-73.2852 45.6055-71.6611Q47.2051-70.0371 47.2051-67.8408Q47.2051-65.6533 45.6055-64.0005Q44.0059-62.3477 41.7607-62.3477ZM46.207 8.19727Q58.6748 8.19727 67.4805 5.66113Q76.2861 3.125 80.9321-0.994141Q85.5781-5.11328 85.5781-9.80469Q85.5781-13.8438 82.9058-17.1011Q80.2334-20.3584 75.9443-22.7231Q71.6553-25.0879 66.6719-26.4292Q61.6885-27.7705 57.0576-27.9688L57.0576-20.5088Q60.0625-20.3633 63.3496-19.5869Q66.6367-18.8105 69.4771-17.521Q72.3174-16.2314 74.082-14.5132Q75.8467-12.7949 75.8467-10.7256Q75.8467-7.49414 72.0269-5.01709Q68.207-2.54004 61.5146-1.1416Q54.8223 0.256836 46.207 0.256836Q37.5605 0.256836 30.8838-1.12158Q24.207-2.5 20.3872-4.97705Q16.5674-7.4541 16.5674-10.7256Q16.5674-12.7949 18.332-14.5132Q20.0967-16.2314 22.937-17.521Q25.7773-18.8105 29.0645-19.5869Q32.3516-20.3633 35.3564-20.5088L35.3564-27.9688Q30.7344-27.7705 25.7466-26.4292Q20.7588-25.0879 16.4697-22.7231Q12.1807-20.3584 9.5083-17.1011Q6.83594-13.8438 6.83594-9.80469Q6.83594-5.11328 11.4819-0.994141Q16.1279 3.125 24.9336 5.66113Q33.7393 8.19727 46.207 8.19727Z"/>
  </g>
  <g id="Regular-S" transform="matrix(1 0 0 1 1406.05 696)">
   <path d="M28.5156-63.1348Q28.5156-57.8613 31.665-53.8086Q34.8145-49.7559 39.6973-48.3398L39.6973-27.002Q39.6973-20.5566 40.3564-16.0889Q41.0156-11.6211 41.9678-9.32617Q42.9199-7.03125 43.7988-7.03125Q44.6777-7.03125 45.6299-9.32617Q46.582-11.6211 47.2168-16.0889Q47.8516-20.5566 47.8516-27.002L47.8516-48.3398Q52.7344-49.707 55.9082-53.7842Q59.082-57.8613 59.082-63.1348Q59.082-67.334 57.0312-70.8252Q54.9805-74.3164 51.5137-76.3916Q48.0469-78.4668 43.7988-78.4668Q39.5508-78.4668 36.084-76.3916Q32.6172-74.3164 30.5664-70.8252Q28.5156-67.334 28.5156-63.1348ZM39.502-62.207Q37.4023-62.207 35.8398-63.7939Q34.2773-65.3809 34.2773-67.4805Q34.2773-69.5801 35.8398-71.1426Q37.4023-72.7051 39.502-72.7051Q41.6504-72.7051 43.1885-71.1426Q44.7266-69.5801 44.7266-67.4805Q44.7266-65.3809 43.1885-63.7939Q41.6504-62.207 39.502-62.207ZM43.7988 7.61719Q55.7129 7.61719 63.9648 5.15137Q72.2168 2.68555 76.4893-1.19629Q80.7617-5.07812 80.7617-9.27734Q80.7617-13.2812 78.0762-16.4551Q75.3906-19.6289 71.2158-21.875Q67.041-24.1211 62.4268-25.3174Q57.8125-26.5137 53.9551-26.5625L53.9551-20.166Q56.4941-20.1172 59.5703-19.3848Q62.6465-18.6523 65.4297-17.3584Q68.2129-16.0645 69.9951-14.3066Q71.7773-12.5488 71.7773-10.4004Q71.7773-7.17773 68.1641-4.6875Q64.5508-2.19727 58.2275-0.78125Q51.9043 0.634766 43.7988 0.634766Q35.6445 0.634766 29.3457-0.756836Q23.0469-2.14844 19.4336-4.63867Q15.8203-7.12891 15.8203-10.4004Q15.8203-12.5488 17.6025-14.3066Q19.3848-16.0645 22.168-17.3584Q24.9512-18.6523 28.0273-19.3848Q31.1035-20.1172 33.6426-20.166L33.6426-26.5625Q29.7852-26.5137 25.1709-25.3174Q20.5566-24.1211 16.3818-21.875Q12.207-19.6289 9.52148-16.4551Q6.83594-13.2812 6.83594-9.27734Q6.83594-5.07812 11.1084-1.19629Q15.3809 2.68555 23.6328 5.15137Q31.8848 7.61719 43.7988 7.61719Z"/>
  </g>
  <g id="Light-S" transform="matrix(1 0 0 1 1110.48 696)">
   <path d="M29.0527-62.5814Q29.0527-57.7474 32.0312-54.069Q35.0098-50.3906 39.5671-49.3164L39.5671-22.7702Q39.5671-17.7897 40.0553-14.3636Q40.5436-10.9375 41.2598-9.19596Q41.9759-7.45443 42.6595-7.45443Q43.3268-7.45443 44.043-9.19596Q44.7591-10.9375 45.2393-14.3636Q45.7194-17.7897 45.7194-22.7702L45.7194-49.3164Q50.2604-50.3581 53.2552-54.0527Q56.25-57.7474 56.25-62.5814Q56.25-66.3249 54.4271-69.4255Q52.6042-72.526 49.5199-74.3734Q46.4355-76.2207 42.6595-76.2207Q38.8672-76.2207 35.791-74.3734Q32.7148-72.526 30.8838-69.4255Q29.0527-66.3249 29.0527-62.5814ZM38.6882-61.9141Q36.8327-61.9141 35.4329-63.3219Q34.0332-64.7298 34.0332-66.6016Q34.0332-68.4733 35.4329-69.8649Q36.8327-71.2565 38.6882-71.2565Q40.5924-71.2565 41.9596-69.8649Q43.3268-68.4733 43.3268-66.6016Q43.3268-64.7298 41.9596-63.3219Q40.5924-61.9141 38.6882-61.9141ZM42.6432 6.08724Q53.8574 6.08724 61.8815 3.84115Q69.9056 1.59505 74.1943-2.05078Q78.4831-5.69661 78.4831-9.87956Q78.4831-13.4766 75.9115-16.3493Q73.3398-19.222 69.2871-21.2728Q65.2344-23.3236 60.6852-24.4303Q56.1361-25.5371 52.1322-25.5859L52.1322-20.638Q55.0781-20.5729 58.4717-19.8242Q61.8652-19.0755 64.8763-17.749Q67.8874-16.4225 69.7998-14.6322Q71.7122-12.8418 71.7122-10.6445Q71.7122-7.29167 67.9199-4.72819Q64.1276-2.16471 57.5521-0.716146Q50.9766 0.732422 42.6432 0.732422Q34.2936 0.732422 27.7425-0.691732Q21.1914-2.11589 17.391-4.67936Q13.5905-7.24284 13.5905-10.6445Q13.5905-12.8418 15.5029-14.6322Q17.4154-16.4225 20.4346-17.749Q23.4538-19.0755 26.8473-19.8242Q30.2409-20.5729 33.1543-20.638L33.1543-25.5859Q29.1829-25.5371 24.6175-24.4303Q20.0521-23.3236 16.0156-21.2728Q11.9792-19.222 9.40755-16.3493Q6.83594-13.4766 6.83594-9.87956Q6.83594-5.69661 11.1247-2.05078Q15.4134 1.59505 23.4375 3.84115Q31.4616 6.08724 42.6432 6.08724Z"/>
  </g>
  <g id="Thin-S" transform="matrix(1 0 0 1 815.278 696)">
   <path d="M29.7631-61.8495Q29.7631-57.5967 32.5156-54.4134Q35.2681-51.2302 39.3948-50.608L39.3948-17.1733Q39.3948-14.1302 39.6571-12.0818Q39.9194-10.0334 40.3234-9.02375Q40.7274-8.01411 41.1527-8.01411Q41.5401-8.01411 41.9441-9.02375Q42.3482-10.0334 42.6238-12.0818Q42.8994-14.1302 42.8994-17.1733L42.8994-50.608Q46.9884-51.2191 49.7464-54.4079Q52.5044-57.5967 52.5044-61.8495Q52.5044-64.9902 50.9829-67.5742Q49.4613-70.1581 46.8829-71.7041Q44.3044-73.2501 41.1527-73.2501Q37.9631-73.2501 35.4035-71.7041Q32.844-70.1581 31.3036-67.5742Q29.7631-64.9902 29.7631-61.8495ZM37.6118-61.5266Q36.0793-61.5266 34.8948-62.6977Q33.7103-63.8688 33.7103-65.4391Q33.7103-67.0095 34.8948-68.1751Q36.0793-69.3407 37.6118-69.3407Q39.1932-69.3407 40.3344-68.1751Q41.4756-67.0095 41.4756-65.4391Q41.4756-63.8688 40.3344-62.6977Q39.1932-61.5266 37.6118-61.5266ZM41.1149 4.06376Q51.4034 4.06376 59.1261 2.10827Q66.8489 0.152785 71.1591-3.18092Q75.4694-6.51462 75.4694-10.676Q75.4694-13.7349 73.0485-16.2094Q70.6275-18.6838 66.7362-20.4763Q62.8449-22.2688 58.3819-23.2572Q53.9189-24.2455 49.7212-24.2944L49.7212-21.2623Q53.2053-21.1757 57.0186-20.4054Q60.832-19.6352 64.1444-18.2657Q67.4568-16.8961 69.5415-15.0627Q71.6261-13.2293 71.6261-10.9674Q71.6261-7.44235 67.597-4.78201Q63.5679-2.12166 56.6587-0.63004Q49.7496 0.86158 41.1149 0.86158Q32.5069 0.86158 25.6222-0.605626Q18.7374-2.07283 14.6894-4.73318Q10.6414-7.39352 10.6414-10.9674Q10.6414-13.2293 12.726-15.0627Q14.8107-16.8961 18.142-18.2657Q21.4733-19.6352 25.2867-20.4054Q29.1-21.1757 32.5085-21.2623L32.5085-24.2944Q28.3865-24.2455 23.8856-23.2572Q19.3848-22.2688 15.5313-20.4763Q11.6778-18.6838 9.25687-16.2094Q6.83594-13.7349 6.83594-10.676Q6.83594-6.51462 11.1462-3.18092Q15.4565 0.152785 23.1792 2.10827Q30.9019 4.06376 41.1149 4.06376Z"/>
  </g>
  <g id="Ultralight-S" transform="matrix(1 0 0 1 519.341 696)">
   <path d="M30.127-61.4746Q30.127-57.5195 32.7637-54.5898Q35.4004-51.6602 39.3066-51.2695L39.3066-14.3066Q39.3066-12.2559 39.4531-10.9131Q39.5996-9.57031 39.8438-8.93555Q40.0879-8.30078 40.3809-8.30078Q40.625-8.30078 40.8691-8.93555Q41.1133-9.57031 41.2842-10.9131Q41.4551-12.2559 41.4551-14.3066L41.4551-51.2695Q45.3125-51.6602 47.9492-54.5898Q50.5859-57.5195 50.5859-61.4746Q50.5859-64.3066 49.2188-66.626Q47.8516-68.9453 45.5322-70.3369Q43.2129-71.7285 40.3809-71.7285Q37.5-71.7285 35.2051-70.3369Q32.9102-68.9453 31.5186-66.626Q30.127-64.3066 30.127-61.4746ZM37.0605-61.3281Q35.6934-61.3281 34.6191-62.3779Q33.5449-63.4277 33.5449-64.8438Q33.5449-66.2598 34.6191-67.3096Q35.6934-68.3594 37.0605-68.3594Q38.4766-68.3594 39.502-67.3096Q40.5273-66.2598 40.5273-64.8438Q40.5273-63.4277 39.502-62.3779Q38.4766-61.3281 37.0605-61.3281ZM40.332 3.02734Q50.1465 3.02734 57.7148 1.2207Q65.2832-0.585938 69.6045-3.75977Q73.9258-6.93359 73.9258-11.084Q73.9258-13.8672 71.582-16.1377Q69.2383-18.4082 65.4297-20.0684Q61.6211-21.7285 57.2021-22.6562Q52.7832-23.584 48.4863-23.6328L48.4863-21.582Q52.2461-21.4844 56.2744-20.7031Q60.3027-19.9219 63.7695-18.5303Q67.2363-17.1387 69.4092-15.2832Q71.582-13.4277 71.582-11.1328Q71.582-7.51953 67.4316-4.80957Q63.2812-2.09961 56.2012-0.585938Q49.1211 0.927734 40.332 0.927734Q31.5918 0.927734 24.5361-0.561523Q17.4805-2.05078 13.3057-4.76074Q9.13086-7.4707 9.13086-11.1328Q9.13086-13.4277 11.3037-15.2832Q13.4766-17.1387 16.9678-18.5303Q20.459-19.9219 24.4873-20.7031Q28.5156-21.4844 32.1777-21.582L32.1777-23.6328Q27.9785-23.584 23.5107-22.6562Q19.043-21.7285 15.2832-20.0684Q11.5234-18.4082 9.17969-16.1377Q6.83594-13.8672 6.83594-11.084Q6.83594-6.93359 11.1572-3.75977Q15.4785-0.585938 23.0469 1.2207Q30.6152 3.02734 40.332 3.02734Z"/>
  </g>
 </g>
</svg>
